<svg width="436" height="289" viewBox="0 0 436 289" fill="none" xmlns="http://www.w3.org/2000/svg">
<path d="M52.8 227.8L36 221.6V216.4L52.8 210.2V214.32L40.08 218.68V219.32L52.8 223.68V227.8ZM341.013 241L352.773 205H356.893L345.133 241H341.013ZM360.89 227.8V223.68L373.65 219.32V218.68L360.89 214.32V210.2L377.69 216.4V221.6L360.89 227.8Z" fill="#595959"/>
<path d="M60.3727 233V199.4H66.7087V233H60.3727Z" fill="#0A5D5D"/>
<path d="M73.3809 233V213.28H77.4209V215.6H78.0609C78.4343 214.907 79.0343 214.293 79.8609 213.76C80.6876 213.227 81.8076 212.96 83.2209 212.96C84.6876 212.96 85.8609 213.267 86.7409 213.88C87.6476 214.467 88.3276 215.227 88.7809 216.16H89.4209C89.8743 215.253 90.5276 214.493 91.3809 213.88C92.2609 213.267 93.5009 212.96 95.1009 212.96C96.3809 212.96 97.5143 213.227 98.5009 213.76C99.4876 214.267 100.274 215.04 100.861 216.08C101.448 217.093 101.741 218.36 101.741 219.88V233H97.6209V220.2C97.6209 219 97.2876 218.08 96.6209 217.44C95.9809 216.773 95.0609 216.44 93.8609 216.44C92.5809 216.44 91.5543 216.853 90.7809 217.68C90.0076 218.507 89.6209 219.693 89.6209 221.24V233H85.5009V220.2C85.5009 219 85.1676 218.08 84.5009 217.44C83.8609 216.773 82.9409 216.44 81.7409 216.44C80.4609 216.44 79.4343 216.853 78.6609 217.68C77.8876 218.507 77.5009 219.693 77.5009 221.24V233H73.3809ZM114.198 233.56C112.784 233.56 111.518 233.32 110.398 232.84C109.304 232.36 108.424 231.653 107.758 230.72C107.118 229.787 106.798 228.653 106.798 227.32C106.798 225.96 107.118 224.84 107.758 223.96C108.424 223.053 109.318 222.373 110.438 221.92C111.584 221.467 112.878 221.24 114.318 221.24H120.318V219.96C120.318 218.813 119.971 217.893 119.278 217.2C118.584 216.507 117.518 216.16 116.078 216.16C114.664 216.16 113.584 216.493 112.838 217.16C112.091 217.827 111.598 218.693 111.358 219.76L107.518 218.52C107.838 217.453 108.344 216.493 109.038 215.64C109.758 214.76 110.704 214.053 111.878 213.52C113.051 212.987 114.464 212.72 116.118 212.72C118.678 212.72 120.691 213.373 122.158 214.68C123.624 215.987 124.358 217.84 124.358 220.24V228.36C124.358 229.16 124.731 229.56 125.478 229.56H127.158V233H124.078C123.144 233 122.384 232.76 121.798 232.28C121.211 231.8 120.918 231.147 120.918 230.32V230.2H120.318C120.104 230.6 119.784 231.067 119.358 231.6C118.931 232.133 118.304 232.6 117.478 233C116.651 233.373 115.558 233.56 114.198 233.56ZM114.798 230.16C116.451 230.16 117.784 229.693 118.798 228.76C119.811 227.8 120.318 226.493 120.318 224.84V224.44H114.558C113.464 224.44 112.584 224.68 111.918 225.16C111.251 225.613 110.918 226.293 110.918 227.2C110.918 228.107 111.264 228.827 111.958 229.36C112.651 229.893 113.598 230.16 114.798 230.16ZM131.564 233V213.28H135.604V216.24H136.244C136.617 215.44 137.284 214.693 138.244 214C139.204 213.307 140.63 212.96 142.524 212.96C144.017 212.96 145.337 213.293 146.484 213.96C147.657 214.627 148.577 215.573 149.244 216.8C149.91 218 150.244 219.453 150.244 221.16V233H146.124V221.48C146.124 219.773 145.697 218.52 144.844 217.72C143.99 216.893 142.817 216.48 141.324 216.48C139.617 216.48 138.244 217.04 137.204 218.16C136.19 219.28 135.684 220.907 135.684 223.04V233H131.564ZM207.645 233.56C205.645 233.56 203.898 233.147 202.405 232.32C200.911 231.467 199.738 230.28 198.885 228.76C198.058 227.213 197.645 225.427 197.645 223.4V222.92C197.645 220.867 198.058 219.08 198.885 217.56C199.711 216.013 200.858 214.827 202.325 214C203.818 213.147 205.538 212.72 207.485 212.72C209.378 212.72 211.031 213.147 212.445 214C213.885 214.827 215.005 215.987 215.805 217.48C216.605 218.973 217.005 220.72 217.005 222.72V224.28H201.845C201.898 226.013 202.471 227.4 203.565 228.44C204.685 229.453 206.071 229.96 207.725 229.96C209.271 229.96 210.431 229.613 211.205 228.92C212.005 228.227 212.618 227.427 213.045 226.52L216.445 228.28C216.071 229.027 215.525 229.813 214.805 230.64C214.111 231.467 213.191 232.16 212.045 232.72C210.898 233.28 209.431 233.56 207.645 233.56ZM201.885 221.12H212.805C212.698 219.627 212.165 218.467 211.205 217.64C210.245 216.787 208.991 216.36 207.445 216.36C205.898 216.36 204.631 216.787 203.645 217.64C202.685 218.467 202.098 219.627 201.885 221.12ZM230.444 233.56C227.937 233.56 225.857 233 224.204 231.88C222.551 230.76 221.537 229.067 221.164 226.8L225.004 225.88C225.217 226.973 225.577 227.84 226.084 228.48C226.591 229.12 227.217 229.573 227.964 229.84C228.737 230.107 229.564 230.24 230.444 230.24C231.751 230.24 232.751 229.987 233.444 229.48C234.164 228.973 234.524 228.32 234.524 227.52C234.524 226.72 234.191 226.133 233.524 225.76C232.857 225.387 231.871 225.08 230.564 224.84L229.204 224.6C227.871 224.36 226.657 224.013 225.564 223.56C224.471 223.107 223.604 222.48 222.964 221.68C222.324 220.88 222.004 219.853 222.004 218.6C222.004 216.733 222.697 215.293 224.084 214.28C225.471 213.24 227.311 212.72 229.604 212.72C231.817 212.72 233.631 213.227 235.044 214.24C236.484 215.227 237.417 216.573 237.844 218.28L234.004 219.36C233.764 218.16 233.257 217.32 232.484 216.84C231.711 216.333 230.751 216.08 229.604 216.08C228.484 216.08 227.604 216.293 226.964 216.72C226.324 217.12 226.004 217.693 226.004 218.44C226.004 219.24 226.311 219.827 226.924 220.2C227.564 220.573 228.417 220.853 229.484 221.04L230.884 221.28C232.297 221.52 233.591 221.853 234.764 222.28C235.937 222.707 236.857 223.32 237.524 224.12C238.217 224.92 238.564 225.987 238.564 227.32C238.564 229.293 237.831 230.827 236.364 231.92C234.897 233.013 232.924 233.56 230.444 233.56ZM243.78 233V213.28H247.82V215.6H248.46C248.78 214.773 249.286 214.173 249.98 213.8C250.7 213.4 251.58 213.2 252.62 213.2H254.98V216.92H252.46C251.126 216.92 250.033 217.293 249.18 218.04C248.326 218.76 247.9 219.88 247.9 221.4V233H243.78ZM267.985 233.56C265.985 233.56 264.238 233.147 262.745 232.32C261.252 231.467 260.078 230.28 259.225 228.76C258.398 227.213 257.985 225.427 257.985 223.4V222.92C257.985 220.867 258.398 219.08 259.225 217.56C260.052 216.013 261.198 214.827 262.665 214C264.158 213.147 265.878 212.72 267.825 212.72C269.718 212.72 271.372 213.147 272.785 214C274.225 214.827 275.345 215.987 276.145 217.48C276.945 218.973 277.345 220.72 277.345 222.72V224.28H262.185C262.238 226.013 262.812 227.4 263.905 228.44C265.025 229.453 266.412 229.96 268.065 229.96C269.612 229.96 270.772 229.613 271.545 228.92C272.345 228.227 272.958 227.427 273.385 226.52L276.785 228.28C276.412 229.027 275.865 229.813 275.145 230.64C274.452 231.467 273.532 232.16 272.385 232.72C271.238 233.28 269.772 233.56 267.985 233.56ZM262.225 221.12H273.145C273.038 219.627 272.505 218.467 271.545 217.64C270.585 216.787 269.332 216.36 267.785 216.36C266.238 216.36 264.972 216.787 263.985 217.64C263.025 218.467 262.438 219.627 262.225 221.12ZM290.865 233.56C289.238 233.56 287.731 233.16 286.345 232.36C284.958 231.56 283.838 230.413 282.985 228.92C282.158 227.4 281.745 225.573 281.745 223.44V222.84C281.745 220.733 282.158 218.92 282.985 217.4C283.811 215.88 284.918 214.72 286.305 213.92C287.691 213.12 289.211 212.72 290.865 212.72C292.145 212.72 293.211 212.88 294.065 213.2C294.945 213.52 295.665 213.933 296.225 214.44C296.785 214.92 297.211 215.427 297.505 215.96H298.145V205H302.265V233H298.225V230.2H297.585C297.078 231.053 296.305 231.827 295.265 232.52C294.251 233.213 292.785 233.56 290.865 233.56ZM292.025 229.96C293.811 229.96 295.278 229.387 296.425 228.24C297.598 227.093 298.185 225.453 298.185 223.32V222.96C298.185 220.853 297.611 219.227 296.465 218.08C295.318 216.933 293.838 216.36 292.025 216.36C290.265 216.36 288.798 216.933 287.625 218.08C286.478 219.227 285.905 220.853 285.905 222.96V223.32C285.905 225.453 286.478 227.093 287.625 228.24C288.798 229.387 290.265 229.96 292.025 229.96ZM308.73 233V213.28H312.85V233H308.73ZM310.81 210.6C310.01 210.6 309.33 210.347 308.77 209.84C308.236 209.307 307.97 208.627 307.97 207.8C307.97 206.973 308.236 206.307 308.77 205.8C309.33 205.267 310.01 205 310.81 205C311.636 205 312.316 205.267 312.85 205.8C313.383 206.307 313.65 206.973 313.65 207.8C313.65 208.627 313.383 209.307 312.85 209.84C312.316 210.347 311.636 210.6 310.81 210.6ZM319.364 233V213.28H323.404V216.24H324.044C324.417 215.44 325.084 214.693 326.044 214C327.004 213.307 328.431 212.96 330.324 212.96C331.817 212.96 333.137 213.293 334.284 213.96C335.457 214.627 336.377 215.573 337.044 216.8C337.711 218 338.044 219.453 338.044 221.16V233H333.924V221.48C333.924 219.773 333.497 218.52 332.644 217.72C331.791 216.893 330.617 216.48 329.124 216.48C327.417 216.48 326.044 217.04 325.004 218.16C323.991 219.28 323.484 220.907 323.484 223.04V233H319.364Z" fill="black"/>
<path d="M166.573 233V199.4H176.557L185.677 229.544H186.445V199.4H191.581V233H181.597L172.477 202.808H171.709V233H166.573Z" fill="#0A5C5C"/>
<rect x="66" y="151" width="100" height="23" fill="black"/>
<rect x="66" y="26" width="70" height="23" fill="black"/>
<rect x="123" y="49" width="23" height="102" fill="black"/>
<circle cx="151.5" cy="37.5" r="11.5" fill="#0A5C5C"/>
<rect x="294" y="107" width="23" height="67" fill="black"/>
<rect x="182" y="26" width="36" height="23" fill="#0A5C5C"/>
<rect x="166" y="26" width="23" height="125" fill="black"/>
<rect x="294" y="26" width="23" height="69" fill="#0A5C5C"/>
<rect x="169" y="42.3256" width="23" height="177.629" transform="rotate(-45.2193 169 42.3256)" fill="black"/>
<rect x="189" y="150" width="29" height="23" fill="#0A5C5C"/>
</svg>
